<svg width="138" height="41" viewBox="0 0 138 41" fill="none" xmlns="http://www.w3.org/2000/svg">
<g clip-path="url(#clip0_4212_706)">
<g clip-path="url(#clip1_4212_706)">
<path d="M36.4335 20.4167C36.4335 19.1167 36.3168 17.8667 36.1002 16.6667H18.8335V23.7667H28.7002C28.2668 26.05 26.9668 27.9833 25.0168 29.2833V33.9H30.9668C34.4335 30.7 36.4335 26 36.4335 20.4167Z" fill="white"/>
<path d="M18.8335 38.3333C23.7835 38.3333 27.9335 36.7 30.9668 33.9L25.0168 29.2833C23.3835 30.3833 21.3001 31.05 18.8335 31.05C14.0668 31.05 10.0168 27.8333 8.5668 23.5H2.4668V28.2333C5.48346 34.2167 11.6668 38.3333 18.8335 38.3333Z" fill="white"/>
<path d="M8.56667 23.4833C8.2 22.3833 7.98333 21.2167 7.98333 20C7.98333 18.7833 8.2 17.6167 8.56667 16.5167V11.7833H2.46667C1.21667 14.25 0.5 17.0333 0.5 20C0.5 22.9667 1.21667 25.75 2.46667 28.2167L7.21667 24.5167L8.56667 23.4833Z" fill="white"/>
<path d="M18.8335 8.96667C21.5335 8.96667 23.9335 9.9 25.8501 11.7L31.1001 6.45C27.9168 3.48334 23.7835 1.66667 18.8335 1.66667C11.6668 1.66667 5.48346 5.78334 2.4668 11.7833L8.5668 16.5167C10.0168 12.1833 14.0668 8.96667 18.8335 8.96667Z" fill="white"/>
</g>
<path d="M52.2232 0.555739C52.4677 -0.185245 53.5323 -0.185247 53.7768 0.555737L55.2234 4.93992C55.3328 5.27129 55.6464 5.49565 56.0002 5.49565H60.6817C61.4729 5.49565 61.8019 6.49264 61.1618 6.9506L57.3744 9.66017C57.0881 9.86497 56.9683 10.228 57.0777 10.5594L58.5243 14.9435C58.7688 15.6845 57.9076 16.3007 57.2674 15.8428L53.4801 13.1332C53.1938 12.9284 52.8062 12.9284 52.5199 13.1332L48.7326 15.8428C48.0924 16.3007 47.2312 15.6845 47.4757 14.9435L48.9223 10.5594C49.0317 10.228 48.9119 9.86497 48.6256 9.66017L44.8383 6.9506C44.1981 6.49264 44.5271 5.49565 45.3183 5.49565H49.9998C50.3536 5.49565 50.6672 5.27129 50.7766 4.93992L52.2232 0.555739Z" fill="white"/>
<path d="M71.2232 0.555739C71.4677 -0.185245 72.5323 -0.185247 72.7768 0.555737L74.2234 4.93992C74.3328 5.27129 74.6464 5.49565 75.0002 5.49565H79.6817C80.4729 5.49565 80.8019 6.49264 80.1618 6.9506L76.3744 9.66017C76.0881 9.86497 75.9683 10.228 76.0777 10.5594L77.5243 14.9435C77.7688 15.6845 76.9076 16.3007 76.2674 15.8428L72.4801 13.1332C72.1938 12.9284 71.8062 12.9284 71.5199 13.1332L67.7326 15.8428C67.0924 16.3007 66.2312 15.6845 66.4757 14.9435L67.9223 10.5594C68.0317 10.228 67.9119 9.86497 67.6256 9.66017L63.8383 6.9506C63.1981 6.49264 63.5271 5.49565 64.3183 5.49565H68.9998C69.3536 5.49565 69.6672 5.27129 69.7766 4.93992L71.2232 0.555739Z" fill="white"/>
<path d="M90.2232 0.555739C90.4677 -0.185245 91.5323 -0.185247 91.7768 0.555737L93.2234 4.93992C93.3328 5.27129 93.6464 5.49565 94.0002 5.49565H98.6817C99.4729 5.49565 99.8019 6.49264 99.1618 6.9506L95.3744 9.66017C95.0881 9.86497 94.9683 10.228 95.0777 10.5594L96.5243 14.9435C96.7688 15.6845 95.9076 16.3007 95.2674 15.8428L91.4801 13.1332C91.1938 12.9284 90.8062 12.9284 90.5199 13.1332L86.7326 15.8428C86.0924 16.3007 85.2312 15.6845 85.4757 14.9435L86.9223 10.5594C87.0317 10.228 86.9119 9.86497 86.6256 9.66017L82.8383 6.9506C82.1981 6.49264 82.5271 5.49565 83.3183 5.49565H87.9998C88.3536 5.49565 88.6672 5.27129 88.7766 4.93992L90.2232 0.555739Z" fill="white"/>
<path d="M109.223 0.555739C109.468 -0.185245 110.532 -0.185247 110.777 0.555737L112.223 4.93992C112.333 5.27129 112.646 5.49565 113 5.49565H117.682C118.473 5.49565 118.802 6.49264 118.162 6.9506L114.374 9.66017C114.088 9.86497 113.968 10.228 114.078 10.5594L115.524 14.9435C115.769 15.6845 114.908 16.3007 114.267 15.8428L110.48 13.1332C110.194 12.9284 109.806 12.9284 109.52 13.1332L105.733 15.8428C105.092 16.3007 104.231 15.6845 104.476 14.9435L105.922 10.5594C106.032 10.228 105.912 9.86497 105.626 9.66017L101.838 6.9506C101.198 6.49264 101.527 5.49565 102.318 5.49565H107C107.354 5.49565 107.667 5.27129 107.777 4.93992L109.223 0.555739Z" fill="white"/>
<path d="M128.223 0.555739C128.468 -0.185245 129.532 -0.185247 129.777 0.555737L131.223 4.93992C131.333 5.27129 131.646 5.49565 132 5.49565H136.682C137.473 5.49565 137.802 6.49264 137.162 6.9506L133.374 9.66017C133.088 9.86497 132.968 10.228 133.078 10.5594L134.524 14.9435C134.769 15.6845 133.908 16.3007 133.267 15.8428L129.48 13.1332C129.194 12.9284 128.806 12.9284 128.52 13.1332L124.733 15.8428C124.092 16.3007 123.231 15.6845 123.476 14.9435L124.922 10.5594C125.032 10.228 124.912 9.86497 124.626 9.66017L120.838 6.9506C120.198 6.49264 120.527 5.49565 121.318 5.49565H126C126.354 5.49565 126.667 5.27129 126.777 4.93992L128.223 0.555739Z" fill="white"/>
<g clip-path="url(#clip2_4212_706)">
<path d="M50.8074 36.6H49.3361V34.0632H44.2192V32.7192L49.4832 25.7976H50.8074V32.8872H52.3441V34.0632H50.8074V36.6ZM45.5761 32.8872H49.3361V27.7968L45.5761 32.8872ZM57.6273 36.8016C55.028 36.8016 53.524 34.7184 53.524 31.2072C53.524 27.5952 55.0607 25.596 57.6273 25.596C60.2103 25.596 61.7143 27.6792 61.7143 31.2072C61.7143 34.8192 60.1776 36.8016 57.6273 36.8016ZM57.6273 35.5248C59.3111 35.5248 60.243 33.9792 60.243 31.2072C60.243 28.452 59.2948 26.8728 57.6273 26.8728C55.9271 26.8728 54.9953 28.4016 54.9953 31.2072C54.9953 33.9288 55.9434 35.5248 57.6273 35.5248ZM63.8586 31.8456V30.6696H66.4742V27.9984H67.6186V30.6696H70.2179V31.8456H67.6186V34.5336H66.4742V31.8456H63.8586ZM76.3053 36.6V25.176H80.3105C82.6482 25.176 84.1359 26.4192 84.1359 28.4016C84.1359 29.712 83.5146 30.636 82.4684 31.1232C83.1877 31.4592 83.5637 32.0808 83.8416 33.2064L84.6753 36.6H83.0896L82.3866 33.5088C82.0597 32.0808 81.5039 31.812 80.1633 31.812H77.8093V36.6H76.3053ZM80.2778 26.436H77.8093V30.552H80.2451C81.7164 30.552 82.5828 29.7456 82.5828 28.4856C82.5828 27.2256 81.7164 26.436 80.2778 26.436ZM93.8477 33.6936C93.3736 35.7768 91.9187 36.8016 89.9406 36.8016C87.423 36.8016 85.9027 35.0544 85.9027 32.148C85.9027 29.124 87.423 27.4608 89.8588 27.4608C92.311 27.4608 93.7823 29.1912 93.7823 32.0304V32.4H87.374C87.4557 34.3992 88.3712 35.5248 89.9406 35.5248C91.1667 35.5248 92.0331 34.92 92.3437 33.6936H93.8477ZM89.8588 28.7376C88.4693 28.7376 87.6355 29.628 87.423 31.2912H92.2783C92.0821 29.6448 91.2157 28.7376 89.8588 28.7376ZM97.714 36.6L94.4771 27.6792H96.0301L98.4333 34.6008L98.6458 35.3736L98.8583 34.6008L101.261 27.6792H102.716L99.4795 36.6H97.714ZM103.937 26.4864V24.504H105.376V26.4864H103.937ZM103.937 36.6V27.6792H105.376V36.6H103.937ZM115.16 33.6936C114.686 35.7768 113.231 36.8016 111.253 36.8016C108.736 36.8016 107.215 35.0544 107.215 32.148C107.215 29.124 108.736 27.4608 111.172 27.4608C113.624 27.4608 115.095 29.1912 115.095 32.0304V32.4H108.687C108.768 34.3992 109.684 35.5248 111.253 35.5248C112.479 35.5248 113.346 34.92 113.656 33.6936H115.16ZM111.172 28.7376C109.782 28.7376 108.948 29.628 108.736 31.2912H113.591C113.395 29.6448 112.528 28.7376 111.172 28.7376ZM124.372 36.6L122.492 29.9304L122.296 28.9224L122.1 29.9304L120.236 36.6H118.455L115.872 27.6792H117.425L119.207 34.6008L119.419 35.508L119.632 34.6008L121.61 27.6792H123.163L125.141 34.6008L125.337 35.4744L125.517 34.6008L127.299 27.6792H128.786L126.187 36.6H124.372ZM131.15 29.964C131.15 32.4504 136.79 30.4008 136.79 34.08C136.79 35.7432 135.351 36.8016 133.308 36.8016C131.248 36.8016 129.809 35.7936 129.482 33.6936H130.921C131.117 34.9368 132.016 35.6256 133.357 35.6256C134.665 35.6256 135.351 35.0208 135.351 34.1808C135.351 31.7448 129.777 33.7608 129.777 30.0648C129.777 28.704 130.807 27.4608 132.932 27.4608C134.812 27.4608 136.201 28.368 136.479 30.5856H135.041C134.828 29.1912 134.076 28.6704 132.85 28.6704C131.771 28.6704 131.15 29.2248 131.15 29.964Z" fill="white"/>
</g>
</g>
<defs>
<clipPath id="clip0_4212_706">
<rect width="137" height="41" fill="white" transform="translate(0.5)"/>
</clipPath>
<clipPath id="clip1_4212_706">
<rect width="40" height="40" fill="white" transform="translate(0.5)"/>
</clipPath>
<clipPath id="clip2_4212_706">
<rect width="94" height="14" fill="white" transform="translate(44 24)"/>
</clipPath>
</defs>
</svg>
