<svg width="138" height="41" viewBox="0 0 138 41" fill="none" xmlns="http://www.w3.org/2000/svg">
<g clip-path="url(#clip0_4212_652)">
<path d="M26.7367 27.0119C24.8077 28.7481 22.3 29.7127 19.5988 29.7127C13.4254 29.7127 8.98879 25.2756 8.98879 18.9094C8.98879 12.5431 13.4254 8.2989 19.5988 8.2989C22.3 8.2989 24.8077 9.07055 26.7367 10.9997L28.087 12.1572L33.8745 6.36972L32.5243 5.01931C28.8592 1.93262 24.4219 0.00345244 19.5988 0.00345244C8.603 -0.189445 0.5 7.72014 0.5 18.9094C0.5 29.7127 8.79525 38.0081 19.5988 38.0081C24.6148 38.0081 29.245 36.2718 32.91 32.9923L34.2603 31.6419L28.0876 25.4685L26.7367 27.0119Z" fill="white"/>
<path d="M18.9835 12.498C22.4998 12.498 25.3497 15.3483 25.3497 18.8643C25.3497 22.3802 22.4998 25.2305 18.9835 25.2305C15.4678 25.2305 12.6172 22.3802 12.6172 18.8643C12.6172 15.3483 15.4678 12.498 18.9835 12.498Z" fill="white"/>
<path d="M52.2232 0.555739C52.4677 -0.185245 53.5323 -0.185247 53.7768 0.555737L55.2234 4.93992C55.3328 5.27129 55.6464 5.49565 56.0002 5.49565H60.6817C61.4729 5.49565 61.8019 6.49264 61.1618 6.9506L57.3744 9.66017C57.0881 9.86497 56.9683 10.228 57.0777 10.5594L58.5243 14.9435C58.7688 15.6845 57.9076 16.3007 57.2674 15.8428L53.4801 13.1332C53.1938 12.9284 52.8062 12.9284 52.5199 13.1332L48.7326 15.8428C48.0924 16.3007 47.2312 15.6845 47.4757 14.9435L48.9223 10.5594C49.0317 10.228 48.9119 9.86497 48.6256 9.66017L44.8383 6.9506C44.1981 6.49264 44.5271 5.49565 45.3183 5.49565H49.9998C50.3536 5.49565 50.6672 5.27129 50.7766 4.93992L52.2232 0.555739Z" fill="white"/>
<path d="M71.2232 0.555739C71.4677 -0.185245 72.5323 -0.185247 72.7768 0.555737L74.2234 4.93992C74.3328 5.27129 74.6464 5.49565 75.0002 5.49565H79.6817C80.4729 5.49565 80.8019 6.49264 80.1618 6.9506L76.3744 9.66017C76.0881 9.86497 75.9683 10.228 76.0777 10.5594L77.5243 14.9435C77.7688 15.6845 76.9076 16.3007 76.2674 15.8428L72.4801 13.1332C72.1938 12.9284 71.8062 12.9284 71.5199 13.1332L67.7326 15.8428C67.0924 16.3007 66.2312 15.6845 66.4757 14.9435L67.9223 10.5594C68.0317 10.228 67.9119 9.86497 67.6256 9.66017L63.8383 6.9506C63.1981 6.49264 63.5271 5.49565 64.3183 5.49565H68.9998C69.3536 5.49565 69.6672 5.27129 69.7766 4.93992L71.2232 0.555739Z" fill="white"/>
<path d="M90.2232 0.555739C90.4677 -0.185245 91.5323 -0.185247 91.7768 0.555737L93.2234 4.93992C93.3328 5.27129 93.6464 5.49565 94.0002 5.49565H98.6817C99.4729 5.49565 99.8019 6.49264 99.1618 6.9506L95.3744 9.66017C95.0881 9.86497 94.9683 10.228 95.0777 10.5594L96.5243 14.9435C96.7688 15.6845 95.9076 16.3007 95.2674 15.8428L91.4801 13.1332C91.1938 12.9284 90.8062 12.9284 90.5199 13.1332L86.7326 15.8428C86.0924 16.3007 85.2312 15.6845 85.4757 14.9435L86.9223 10.5594C87.0317 10.228 86.9119 9.86497 86.6256 9.66017L82.8383 6.9506C82.1981 6.49264 82.5271 5.49565 83.3183 5.49565H87.9998C88.3536 5.49565 88.6672 5.27129 88.7766 4.93992L90.2232 0.555739Z" fill="white"/>
<path d="M109.223 0.555739C109.468 -0.185245 110.532 -0.185247 110.777 0.555737L112.223 4.93992C112.333 5.27129 112.646 5.49565 113 5.49565H117.682C118.473 5.49565 118.802 6.49264 118.162 6.9506L114.374 9.66017C114.088 9.86497 113.968 10.228 114.078 10.5594L115.524 14.9435C115.769 15.6845 114.908 16.3007 114.267 15.8428L110.48 13.1332C110.194 12.9284 109.806 12.9284 109.52 13.1332L105.733 15.8428C105.092 16.3007 104.231 15.6845 104.476 14.9435L105.922 10.5594C106.032 10.228 105.912 9.86497 105.626 9.66017L101.838 6.9506C101.198 6.49264 101.527 5.49565 102.318 5.49565H107C107.354 5.49565 107.667 5.27129 107.777 4.93992L109.223 0.555739Z" fill="white"/>
<path d="M128.223 0.555739C128.468 -0.185245 129.532 -0.185247 129.777 0.555737L131.223 4.93992C131.333 5.27129 131.646 5.49565 132 5.49565H136.682C137.473 5.49565 137.802 6.49264 137.162 6.9506L133.374 9.66017C133.088 9.86497 132.968 10.228 133.078 10.5594L134.524 14.9435C134.769 15.6845 133.908 16.3007 133.267 15.8428L129.48 13.1332C129.194 12.9284 128.806 12.9284 128.52 13.1332L124.733 15.8428C124.092 16.3007 123.231 15.6845 123.476 14.9435L124.922 10.5594C125.032 10.228 124.912 9.86497 124.626 9.66017L120.838 6.9506C120.198 6.49264 120.527 5.49565 121.318 5.49565H126C126.354 5.49565 126.667 5.27129 126.777 4.93992L128.223 0.555739Z" fill="white"/>
<path d="M45.0134 36.6V36.1968C45.0134 31.3416 50.8332 31.7448 50.8332 28.8384C50.8332 27.612 50.1303 26.8728 48.8225 26.8728C47.3839 26.8728 46.6809 27.6288 46.4847 28.872H44.9971C45.275 26.8392 46.5992 25.596 48.8388 25.596C51.1275 25.596 52.3045 26.9904 52.3045 28.8216C52.3045 32.316 47.1059 32.2824 46.5011 35.424H52.419V36.6H45.0134ZM58.1272 36.8016C55.5279 36.8016 54.0239 34.7184 54.0239 31.2072C54.0239 27.5952 55.5606 25.596 58.1272 25.596C60.7102 25.596 62.2142 27.6792 62.2142 31.2072C62.2142 34.8192 60.6775 36.8016 58.1272 36.8016ZM58.1272 35.5248C59.8111 35.5248 60.7429 33.9792 60.7429 31.2072C60.7429 28.452 59.7947 26.8728 58.1272 26.8728C56.427 26.8728 55.4952 28.4016 55.4952 31.2072C55.4952 33.9288 56.4434 35.5248 58.1272 35.5248ZM64.3585 31.8456V30.6696H66.9741V27.9984H68.1185V30.6696H70.7178V31.8456H68.1185V34.5336H66.9741V31.8456H64.3585ZM76.8052 36.6V25.176H80.8104C83.1481 25.176 84.6358 26.4192 84.6358 28.4016C84.6358 29.712 84.0146 30.636 82.9683 31.1232C83.6876 31.4592 84.0636 32.0808 84.3415 33.2064L85.1753 36.6H83.5895L82.8866 33.5088C82.5596 32.0808 82.0038 31.812 80.6633 31.812H78.3092V36.6H76.8052ZM80.7777 26.436H78.3092V30.552H80.745C82.2163 30.552 83.0827 29.7456 83.0827 28.4856C83.0827 27.2256 82.2163 26.436 80.7777 26.436ZM94.3476 33.6936C93.8735 35.7768 92.4186 36.8016 90.4405 36.8016C87.9229 36.8016 86.4026 35.0544 86.4026 32.148C86.4026 29.124 87.9229 27.4608 90.3587 27.4608C92.8109 27.4608 94.2822 29.1912 94.2822 32.0304V32.4H87.8739C87.9556 34.3992 88.8711 35.5248 90.4405 35.5248C91.6666 35.5248 92.533 34.92 92.8436 33.6936H94.3476ZM90.3587 28.7376C88.9692 28.7376 88.1354 29.628 87.9229 31.2912H92.7782C92.5821 29.6448 91.7156 28.7376 90.3587 28.7376ZM98.2139 36.6L94.977 27.6792H96.53L98.9332 34.6008L99.1457 35.3736L99.3582 34.6008L101.761 27.6792H103.216L99.9794 36.6H98.2139ZM104.437 26.4864V24.504H105.876V26.4864H104.437ZM104.437 36.6V27.6792H105.876V36.6H104.437ZM115.66 33.6936C115.186 35.7768 113.731 36.8016 111.753 36.8016C109.236 36.8016 107.715 35.0544 107.715 32.148C107.715 29.124 109.236 27.4608 111.672 27.4608C114.124 27.4608 115.595 29.1912 115.595 32.0304V32.4H109.187C109.268 34.3992 110.184 35.5248 111.753 35.5248C112.979 35.5248 113.846 34.92 114.156 33.6936H115.66ZM111.672 28.7376C110.282 28.7376 109.448 29.628 109.236 31.2912H114.091C113.895 29.6448 113.028 28.7376 111.672 28.7376ZM124.872 36.6L122.992 29.9304L122.796 28.9224L122.6 29.9304L120.736 36.6H118.954L116.372 27.6792H117.925L119.706 34.6008L119.919 35.508L120.132 34.6008L122.11 27.6792H123.663L125.641 34.6008L125.837 35.4744L126.017 34.6008L127.799 27.6792H129.286L126.687 36.6H124.872ZM131.65 29.964C131.65 32.4504 137.29 30.4008 137.29 34.08C137.29 35.7432 135.851 36.8016 133.808 36.8016C131.748 36.8016 130.309 35.7936 129.982 33.6936H131.421C131.617 34.9368 132.516 35.6256 133.857 35.6256C135.165 35.6256 135.851 35.0208 135.851 34.1808C135.851 31.7448 130.277 33.7608 130.277 30.0648C130.277 28.704 131.306 27.4608 133.432 27.4608C135.312 27.4608 136.701 28.368 136.979 30.5856H135.541C135.328 29.1912 134.576 28.6704 133.35 28.6704C132.271 28.6704 131.65 29.2248 131.65 29.964Z" fill="white"/>
</g>
<defs>
<clipPath id="clip0_4212_652">
<rect width="137" height="41" fill="white" transform="translate(0.5)"/>
</clipPath>
</defs>
</svg>
