<svg width="82" height="24" viewBox="0 0 82 24" fill="none" xmlns="http://www.w3.org/2000/svg">
<path fill-rule="evenodd" clip-rule="evenodd" d="M68.204 0.320437C64.3374 1.44208 61.4823 4.77989 60.6297 9.17606C60.0429 12.2023 60.4322 15.6532 61.6588 18.2983C61.9579 18.9432 62.7584 20.0757 63.4376 20.8152C65.4468 23.002 67.8688 24.0059 71.1218 24C74.4463 23.994 76.6916 23.0986 78.7425 20.9612C80.942 18.6687 82.0048 15.7403 82 11.9865C81.9923 6.07264 78.9187 1.56644 74.035 0.30853C72.4189 -0.107539 69.6609 -0.102026 68.204 0.320437ZM0 2.39505V4.37948H3.32949H6.65897V13.9709V23.5623H8.67684H10.6947V13.9709V4.37948H14.0242H17.3537V2.39505V0.410618H8.67684H0V2.39505ZM21.1876 11.9865V23.5623H29.1582H37.1288V21.3574V19.1525H31.1761H25.2234V16.6203V14.088L30.9239 14.0295L36.6243 13.9709L36.6825 11.9313L36.7404 9.89178H30.982H25.2234V7.24588V4.59997H31.1761H37.1288V2.50529V0.410618H29.1582H21.1876V11.9865ZM41.7699 11.9865V23.5623H43.7841H45.7982L45.8525 18.476L45.9065 13.3894L50.3069 18.476L54.7071 23.5623H57.1172C58.4428 23.5623 59.5272 23.4756 59.5272 23.3696C59.5272 23.2635 57.2536 20.57 54.4748 17.3841C49.4542 11.6277 49.4249 11.5887 49.7954 11.1276C50.0006 10.8723 51.8825 8.62946 53.9774 6.14341C56.0726 3.65737 58.0136 1.35058 58.291 1.01697L58.7955 0.410618H56.2691H53.7425L49.8244 5.19486L45.9065 9.9791L45.8521 5.19486L45.7978 0.410618H43.7837H41.7699V11.9865ZM74.3712 4.65267C76.5513 5.87838 77.8676 8.27976 78.0429 11.3508C78.3563 16.8413 75.335 20.3292 70.5742 19.9727C67.8579 19.7692 66.1143 18.4947 65.038 15.9258C63.4392 12.1099 64.3949 7.29064 67.1634 5.20941C68.5109 4.19625 69.4676 3.93386 71.5335 4.01059C73.0164 4.06594 73.537 4.18368 74.3712 4.65267Z" fill="#EA1367"/>
</svg>
